<svg width="27" height="27" fill="none" xmlns="http://www.w3.org/2000/svg"><path fill-rule="evenodd" clip-rule="evenodd" d="M8.156 11.25a5.344 5.344 0 1 1 10.688 0 5.344 5.344 0 0 1-10.688 0ZM13.5 7.594a3.656 3.656 0 1 0 0 7.312 3.656 3.656 0 0 0 0-7.312Z" fill="#fff"/><path fill-rule="evenodd" clip-rule="evenodd" d="M3.965 9.964a9.324 9.324 0 0 1 9.292-8.558h.486a9.324 9.324 0 0 1 9.292 8.558 10.06 10.06 0 0 1-2.238 7.195l-5.392 6.595a2.46 2.46 0 0 1-3.81 0l-5.392-6.595a10.06 10.06 0 0 1-2.238-7.195Zm9.292-6.87a7.636 7.636 0 0 0-7.61 7.009A8.374 8.374 0 0 0 7.51 16.09l5.392 6.595a.773.773 0 0 0 1.196 0l5.392-6.595a8.373 8.373 0 0 0 1.863-5.988 7.636 7.636 0 0 0-7.61-7.01h-.486Z" fill="#fff"/></svg>