<svg aria-hidden="true" style="width:0;height:0;position:absolute;overflow:hidden" xmlns="http://www.w3.org/2000/svg"><defs><symbol id="icon-Sun" viewBox="0 0 32 32"><path d="M16 1.667a1 1 0 0 1 1 1V4a1 1 0 0 1-2 0V2.667a1 1 0 0 1 1-1zM8.333 16a7.667 7.667 0 1 1 15.334 0 7.667 7.667 0 0 1-15.334 0zM16 10.333a5.667 5.667 0 1 0 0 11.333 5.667 5.667 0 0 0 0-11.333zM7.279 5.865a.999.999 0 1 0-1.414 1.414l.943.943a.999.999 0 1 0 1.414-1.414l-.943-.943zM30.333 16a1 1 0 0 1-1 1H28a1 1 0 0 1 0-2h1.333a1 1 0 0 1 1 1zM26.135 7.279a.999.999 0 1 0-1.414-1.414l-.943.943a.999.999 0 1 0 1.414 1.414l.943-.943zM16 27a1 1 0 0 1 1 1v1.333a1 1 0 0 1-2 0V28a1 1 0 0 1 1-1zM25.192 23.778a.999.999 0 1 0-1.414 1.414l.943.943a.999.999 0 1 0 1.414-1.414l-.943-.943zM5 16a1 1 0 0 1-1 1H2.667a1 1 0 0 1 0-2H4a1 1 0 0 1 1 1zM8.222 25.192a.999.999 0 1 0-1.414-1.414l-.943.943a.999.999 0 1 0 1.414 1.414l.943-.943z"/></symbol><symbol id="icon-cloude" viewBox="0 0 34 32"><path fill="#fff" style="fill:var(--color1,#fff)" d="M14.824 15.059a7.412 7.412 0 0 1 7.412 7.528 1.05 1.05 0 0 0 .404.848c.128.101.277.171.436.204s.324.03.482-.01a3.19 3.19 0 0 1 2.739.566 3.176 3.176 0 0 1-1.943 5.686h-18a4.233 4.233 0 0 1-3.921-2.694 4.25 4.25 0 0 1 .082-3.278 4.227 4.227 0 0 1 2.398-2.237 4.23 4.23 0 0 1 1.653-.257 1.061 1.061 0 0 0 1.08-.794 7.419 7.419 0 0 1 7.179-5.563zm9.472 6.353a9.533 9.533 0 0 0-8.396-8.418 9.527 9.527 0 0 0-10.07 6.321 6.352 6.352 0 0 0-3.878 10.918A6.346 6.346 0 0 0 6.354 32h18a5.295 5.295 0 0 0 0-10.59h-.057z"/><path fill="#fff" style="fill:var(--color1,#fff)" d="M22.235 1.294A1.062 1.062 0 0 0 21.176.235a1.062 1.062 0 0 0-1.059 1.059v2.118a1.056 1.056 0 0 0 1.808.749c.199-.198.31-.468.31-.749V1.294zm7.927 4.159a1.06 1.06 0 1 0-1.498-1.498l-1.499 1.497a1.06 1.06 0 1 0 1.5 1.5l1.497-1.499zM13.688 3.956a1.056 1.056 0 0 0-1.484.013 1.058 1.058 0 0 0-.013 1.484l1.497 1.499a1.055 1.055 0 0 0 1.156.23 1.055 1.055 0 0 0 .574-.574 1.066 1.066 0 0 0 0-.812 1.05 1.05 0 0 0-.23-.344l-1.499-1.497zm3.672 7.145a4.228 4.228 0 0 1 2.699-2.245 4.228 4.228 0 0 1 3.466.562 4.226 4.226 0 0 1 1.851 2.983 4.234 4.234 0 0 1-1.036 3.355c.421.595.788 1.232 1.093 1.902a6.346 6.346 0 0 0 2.077-5.18 6.349 6.349 0 0 0-2.813-4.821 6.356 6.356 0 0 0-7.975.755 6.351 6.351 0 0 0-1.538 2.416c.745.023 1.474.116 2.177.273zm9.496 8.627a7.425 7.425 0 0 1 3.223 2.27 1.056 1.056 0 0 0 .082-1.571l-1.497-1.497a1.059 1.059 0 0 0-1.809.799zm3.85-7.846a1.062 1.062 0 0 0-1.059 1.059A1.062 1.062 0 0 0 30.706 14h2.118a1.062 1.062 0 0 0 1.059-1.059 1.062 1.062 0 0 0-1.059-1.059h-2.118z"/></symbol><symbol id="icon-bi_cloud-rain" viewBox="0 0 32 32"><path fill="#fff" style="fill:var(--color1,#fff)" d="M8.316 24.05a1.002 1.002 0 0 1 .632 1.266l-1 3a1.002 1.002 0 0 1-1.822.112.992.992 0 0 1-.074-.744l1-3a1.002 1.002 0 0 1 1.264-.634zm6 0a1.002 1.002 0 0 1 .632 1.266l-2 6a1.002 1.002 0 0 1-1.822.112.992.992 0 0 1-.074-.744l2-6a1.002 1.002 0 0 1 1.264-.634zm6 0a1.002 1.002 0 0 1 .632 1.266l-1 3a1.002 1.002 0 0 1-1.822.112.992.992 0 0 1-.074-.744l1-3a1.002 1.002 0 0 1 1.264-.634zm6 0a1.002 1.002 0 0 1 .632 1.266l-2 6a1.007 1.007 0 0 1-.496.605 1.012 1.012 0 0 1-.781.063.992.992 0 0 1-.586-.519 1.02 1.02 0 0 1-.033-.783l2-6a1.002 1.002 0 0 1 1.264-.634zm.494-13.996a9.998 9.998 0 0 0-8.76-8A10.008 10.008 0 0 0 7.811 8.046a6.988 6.988 0 0 0-5.305 1.596A6.998 6.998 0 0 0 1.914 19.8 7 7 0 0 0 6.998 22h19a5.998 5.998 0 0 0 4.655-9.793 6.004 6.004 0 0 0-3.846-2.153zM17 4a7.999 7.999 0 0 1 7.952 7.11.996.996 0 0 0 1 .89H26a4.003 4.003 0 0 1 4 4 4.001 4.001 0 0 1-4 4H7a4.993 4.993 0 0 1-3.743-1.688 5 5 0 0 1 4.954-8.164 1 1 0 0 0 1.192-.658A8.007 8.007 0 0 1 17.001 4z"/></symbol></defs></svg>