<svg aria-hidden="true" style="position: absolute; width: 0; height: 0; overflow: hidden;" version="1.1" xmlns="http://www.w3.org/2000/svg" xmlns:xlink="http://www.w3.org/1999/xlink">
<defs>
<symbol id="icon-Sun" viewBox="0 0 32 32">
<path d="M16 1.667c0.552 0 1 0.448 1 1v1.333c0 0.552-0.448 1-1 1s-1-0.448-1-1v-1.333c0-0.552 0.448-1 1-1z"></path>
<path d="M8.333 16c0-4.234 3.432-7.667 7.667-7.667s7.667 3.432 7.667 7.667c0 4.234-3.433 7.667-7.667 7.667s-7.667-3.433-7.667-7.667zM16 10.333c-3.13 0-5.667 2.537-5.667 5.667s2.537 5.667 5.667 5.667c3.13 0 5.667-2.537 5.667-5.667s-2.537-5.667-5.667-5.667z"></path>
<path d="M7.279 5.865c-0.391-0.391-1.024-0.391-1.414 0s-0.391 1.024 0 1.414l0.943 0.943c0.391 0.391 1.024 0.391 1.414 0s0.391-1.024 0-1.414l-0.943-0.943z"></path>
<path d="M30.333 16c0 0.552-0.448 1-1 1h-1.333c-0.552 0-1-0.448-1-1s0.448-1 1-1h1.333c0.552 0 1 0.448 1 1z"></path>
<path d="M26.135 7.279c0.391-0.391 0.391-1.024 0-1.414s-1.024-0.391-1.414 0l-0.943 0.943c-0.391 0.391-0.391 1.024 0 1.414s1.024 0.391 1.414 0l0.943-0.943z"></path>
<path d="M16 27c0.552 0 1 0.448 1 1v1.333c0 0.552-0.448 1-1 1s-1-0.448-1-1v-1.333c0-0.552 0.448-1 1-1z"></path>
<path d="M25.192 23.778c-0.391-0.391-1.024-0.391-1.414 0s-0.391 1.024 0 1.414l0.943 0.943c0.391 0.391 1.024 0.391 1.414 0s0.391-1.024 0-1.414l-0.943-0.943z"></path>
<path d="M5 16c0 0.552-0.448 1-1 1h-1.333c-0.552 0-1-0.448-1-1s0.448-1 1-1h1.333c0.552 0 1 0.448 1 1z"></path>
<path d="M8.222 25.192c0.391-0.391 0.391-1.024 0-1.414s-1.024-0.391-1.414 0l-0.943 0.943c-0.391 0.391-0.391 1.024 0 1.414s1.024 0.391 1.414 0l0.943-0.943z"></path>
</symbol>
<symbol id="icon-cloude" viewBox="0 0 34 32">
<path  d="M14.824 15.059c0.983-0 1.957 0.195 2.864 0.575s1.729 0.936 2.419 1.637c0.69 0.701 1.233 1.531 1.599 2.444s0.546 1.889 0.53 2.872c-0.003 0.163 0.033 0.324 0.103 0.471s0.173 0.276 0.301 0.377c0.128 0.101 0.277 0.171 0.436 0.204s0.324 0.030 0.482-0.010c0.47-0.12 0.96-0.132 1.435-0.034s0.921 0.304 1.304 0.6c0.383 0.297 0.694 0.677 0.907 1.112s0.326 0.913 0.326 1.398c0 0.842-0.335 1.65-0.93 2.246s-1.404 0.93-2.246 0.93h-18c-0.563-0.003-1.12-0.119-1.638-0.34s-0.987-0.543-1.379-0.947c-0.392-0.404-0.7-0.883-0.904-1.407s-0.303-1.084-0.289-1.647c0.014-0.563 0.14-1.117 0.371-1.631s0.562-0.976 0.974-1.36 0.896-0.682 1.424-0.877c0.528-0.195 1.090-0.282 1.653-0.257 0.244 0.013 0.485-0.060 0.682-0.204s0.338-0.353 0.398-0.59c0.411-1.592 1.339-3.002 2.638-4.009s2.897-1.554 4.541-1.554zM24.296 21.412c-0.238-2.147-1.199-4.149-2.724-5.679s-3.525-2.495-5.672-2.739c-2.146-0.244-4.312 0.249-6.142 1.398s-3.215 2.885-3.928 4.923c-1.635 0.134-3.155 0.895-4.241 2.124s-1.656 2.831-1.588 4.47c0.068 1.639 0.767 3.188 1.951 4.324s2.761 1.769 4.402 1.767h18c1.404 0 2.751-0.558 3.744-1.551s1.551-2.339 1.551-3.744-0.558-2.751-1.551-3.744c-0.993-0.993-2.339-1.551-3.744-1.551h-0.057z"></path>
<path fill="#fff" style="fill: var(--color1, #fff)" d="M22.235 1.294c0-0.281-0.112-0.55-0.31-0.749s-0.468-0.31-0.749-0.31c-0.281 0-0.55 0.112-0.749 0.31s-0.31 0.468-0.31 0.749v2.118c0 0.281 0.112 0.55 0.31 0.749s0.468 0.31 0.749 0.31c0.281 0 0.55-0.112 0.749-0.31s0.31-0.468 0.31-0.749v-2.118zM30.162 5.453c0.101-0.098 0.182-0.215 0.237-0.344s0.085-0.268 0.086-0.409c0.001-0.141-0.026-0.28-0.079-0.41s-0.132-0.248-0.231-0.348c-0.099-0.099-0.218-0.178-0.348-0.231s-0.27-0.080-0.41-0.079c-0.141 0.001-0.28 0.030-0.409 0.086s-0.246 0.136-0.344 0.237l-1.499 1.497c-0.199 0.199-0.311 0.468-0.311 0.75s0.112 0.551 0.311 0.75c0.199 0.199 0.468 0.311 0.75 0.311s0.551-0.112 0.75-0.311l1.497-1.499zM13.688 3.956c-0.2-0.193-0.467-0.3-0.745-0.297s-0.543 0.114-0.739 0.31c-0.196 0.196-0.308 0.462-0.31 0.739s0.104 0.545 0.297 0.745l1.497 1.499c0.098 0.098 0.215 0.177 0.344 0.23s0.266 0.081 0.406 0.081c0.139 0 0.277-0.027 0.406-0.081s0.246-0.131 0.344-0.23 0.177-0.215 0.23-0.344c0.053-0.129 0.081-0.266 0.081-0.406s-0.027-0.277-0.081-0.406c-0.053-0.129-0.131-0.245-0.23-0.344l-1.499-1.497zM17.36 11.101c0.263-0.545 0.64-1.028 1.106-1.415s1.009-0.67 1.593-0.83 1.196-0.192 1.794-0.095c0.598 0.097 1.168 0.321 1.672 0.657s0.93 0.776 1.249 1.291c0.319 0.515 0.524 1.092 0.602 1.692s0.025 1.211-0.154 1.79c-0.179 0.579-0.479 1.112-0.882 1.565 0.421 0.595 0.788 1.232 1.093 1.902 0.718-0.648 1.278-1.452 1.638-2.35s0.51-1.866 0.439-2.83c-0.071-0.965-0.361-1.9-0.849-2.736s-1.159-1.548-1.964-2.085c-0.805-0.536-1.722-0.882-2.68-1.010s-1.934-0.036-2.852 0.27c-0.918 0.306-1.753 0.817-2.443 1.495s-1.216 1.504-1.538 2.416c0.745 0.023 1.474 0.116 2.177 0.273zM26.856 19.728c1.271 0.455 2.382 1.249 3.223 2.27 0.115-0.093 0.21-0.21 0.277-0.342s0.106-0.277 0.114-0.425c0.008-0.148-0.016-0.296-0.069-0.435s-0.135-0.264-0.24-0.369l-1.497-1.497c-0.151-0.152-0.344-0.254-0.555-0.294s-0.428-0.015-0.624 0.072c-0.196 0.086-0.361 0.23-0.473 0.413s-0.167 0.394-0.157 0.608zM30.706 11.882c-0.281 0-0.55 0.112-0.749 0.31s-0.31 0.468-0.31 0.749 0.112 0.55 0.31 0.749c0.199 0.199 0.468 0.31 0.749 0.31h2.118c0.281 0 0.55-0.112 0.749-0.31s0.31-0.468 0.31-0.749-0.112-0.55-0.31-0.749c-0.199-0.199-0.468-0.31-0.749-0.31h-2.118z"></path>
</symbol>
<symbol id="icon-arrou-up" viewBox="0 0 27 32">
<path fill="none" stroke="#fff" style="stroke: var(--color1, #fff)" stroke-linejoin="miter" stroke-linecap="butt" stroke-miterlimit="4" stroke-width="0.8889" d="M26.223 13.333v5.196c0 7.118-5.771 12.889-12.889 12.889s-12.889-5.771-12.889-12.889v-5.196c0-7.118 5.771-12.889 12.889-12.889s12.889 5.771 12.889 12.889z"></path>
<path fill="none" stroke="#fff" style="stroke: var(--color1, #fff)" stroke-linejoin="miter" stroke-linecap="butt" stroke-miterlimit="4" stroke-width="0.8889" d="M13.333 25.491v-17.525"></path>
<path fill="none" stroke="#fff" style="stroke: var(--color1, #fff)" stroke-linejoin="miter" stroke-linecap="butt" stroke-miterlimit="4" stroke-width="0.8889" d="M13.333 7.966l-3.333 3.452"></path>
<path fill="none" stroke="#fff" style="stroke: var(--color1, #fff)" stroke-linejoin="miter" stroke-linecap="butt" stroke-miterlimit="4" stroke-width="0.8889" d="M13.333 7.966l3.333 3.452"></path>
</symbol>
<symbol id="icon-bi_cloud-rain" viewBox="0 0 32 32">
<path fill="#fff" style="fill: var(--color1, #fff)" d="M8.316 24.050c0.125 0.042 0.24 0.107 0.339 0.193s0.181 0.191 0.239 0.309c0.059 0.118 0.094 0.246 0.103 0.377s-0.008 0.263-0.049 0.387l-1 3c-0.091 0.242-0.272 0.439-0.506 0.551s-0.501 0.128-0.746 0.046c-0.245-0.082-0.449-0.256-0.57-0.485s-0.147-0.496-0.074-0.744l1-3c0.084-0.252 0.264-0.46 0.501-0.579s0.512-0.139 0.763-0.055zM14.316 24.050c0.125 0.042 0.24 0.107 0.339 0.193s0.181 0.191 0.239 0.309c0.059 0.118 0.094 0.246 0.103 0.377s-0.008 0.263-0.049 0.387l-2 6c-0.091 0.242-0.272 0.439-0.506 0.551s-0.501 0.128-0.746 0.046c-0.245-0.082-0.449-0.256-0.57-0.485s-0.147-0.496-0.074-0.744l2-6c0.084-0.252 0.264-0.46 0.501-0.579s0.512-0.139 0.763-0.055zM20.316 24.050c0.125 0.042 0.24 0.107 0.339 0.193s0.181 0.191 0.239 0.309c0.059 0.118 0.094 0.246 0.103 0.377s-0.008 0.263-0.049 0.387l-1 3c-0.091 0.242-0.272 0.439-0.506 0.551s-0.501 0.128-0.746 0.046c-0.245-0.082-0.449-0.256-0.57-0.485s-0.147-0.496-0.074-0.744l1-3c0.084-0.252 0.264-0.46 0.501-0.579s0.512-0.139 0.763-0.055zM26.316 24.050c0.125 0.042 0.24 0.107 0.339 0.193s0.181 0.191 0.239 0.309c0.059 0.118 0.094 0.246 0.103 0.377s-0.008 0.263-0.049 0.387l-2 6c-0.038 0.129-0.101 0.249-0.186 0.353s-0.191 0.19-0.31 0.252c-0.119 0.062-0.25 0.1-0.384 0.111s-0.269-0.006-0.397-0.048c-0.128-0.043-0.245-0.11-0.346-0.2s-0.183-0.198-0.24-0.319c-0.058-0.121-0.091-0.253-0.096-0.388s0.016-0.269 0.063-0.395l2-6c0.084-0.252 0.264-0.46 0.501-0.579s0.512-0.139 0.763-0.055zM26.81 10.054c-0.415-2.094-1.49-4-3.066-5.439s-3.571-2.337-5.694-2.561c-2.123-0.224-4.261 0.236-6.104 1.314s-3.291 2.717-4.135 4.678c-0.946-0.109-1.905-0.024-2.817 0.251s-1.759 0.732-2.488 1.345-1.326 1.368-1.753 2.22c-0.427 0.851-0.676 1.781-0.731 2.732s0.084 1.903 0.409 2.798c0.326 0.895 0.83 1.715 1.483 2.408s1.441 1.246 2.315 1.624 1.816 0.574 2.769 0.576h19c1.522 0.002 2.988-0.575 4.101-1.614s1.789-2.462 1.892-3.98c0.103-1.519-0.375-3.020-1.338-4.199s-2.337-1.949-3.846-2.153zM17 4c1.968-0 3.867 0.725 5.334 2.036s2.399 3.118 2.618 5.074c0.027 0.246 0.144 0.473 0.329 0.637s0.424 0.254 0.671 0.253h0.048c1.061 0 2.078 0.421 2.828 1.172s1.172 1.768 1.172 2.828-0.421 2.078-1.172 2.828c-0.75 0.75-1.768 1.172-2.828 1.172h-19c-0.708-0-1.408-0.151-2.053-0.442s-1.221-0.716-1.69-1.246c-0.469-0.53-0.82-1.154-1.030-1.83s-0.274-1.389-0.187-2.091c0.086-0.703 0.321-1.379 0.688-1.984s0.859-1.126 1.442-1.527 1.245-0.674 1.942-0.8c0.697-0.126 1.412-0.103 2.099 0.068 0.245 0.061 0.504 0.027 0.725-0.095s0.388-0.323 0.467-0.563c0.529-1.598 1.547-2.988 2.911-3.974s3.004-1.516 4.687-1.516z"></path>
</symbol>
<symbol id="icon-search" viewBox="0 0 32 32">
<path fill="#616161" style="fill: var(--color1, #616161)" d="M19.454 21.327l1.886-1.886 8.014 8.014-1.886 1.886z"></path>
<path fill="#616161" style="fill: var(--color1, #616161)" d="M13.333 2.667c-5.891 0-10.667 4.776-10.667 10.667s4.776 10.667 10.667 10.667v0c5.891 0 10.667-4.776 10.667-10.667s-4.776-10.667-10.667-10.667v0z"></path>
<path fill="#37474f" style="fill: var(--color2, #37474f)" d="M21.637 23.561l1.886-1.886 5.798 5.798-1.886 1.886z"></path>
<path fill="#64b5f6" style="fill: var(--color3, #64b5f6)" d="M13.333 4.667c-4.786 0-8.667 3.88-8.667 8.667s3.88 8.667 8.667 8.667v0c4.786 0 8.667-3.88 8.667-8.667s-3.88-8.667-8.667-8.667v0z"></path>
<path fill="#bbdefb" style="fill: var(--color4, #bbdefb)" d="M17.933 9.467c-1.133-1.333-2.8-2.133-4.6-2.133s-3.467 0.8-4.6 2.133c-0.267 0.267-0.2 0.733 0.067 0.933 0.267 0.267 0.733 0.2 0.933-0.067 0.933-1.067 2.2-1.667 3.6-1.667s2.667 0.6 3.6 1.667c0.133 0.133 0.333 0.267 0.533 0.267 0.133 0 0.333-0.067 0.4-0.133 0.267-0.267 0.267-0.733 0.067-1z"></path>
</symbol>
</defs>
</svg>
